<svg xmlns="http://www.w3.org/2000/svg" width="18.288" height="22.459" viewBox="0 0 18.288 22.459">
  <path id="Icon_metro-apple" data-name="Icon metro-apple" d="M20.71,13.862a5.081,5.081,0,0,1,2.425-4.276A5.245,5.245,0,0,0,19.027,7.36c-1.749-.177-3.413,1.03-4.3,1.03s-2.255-1-3.706-.977a5.5,5.5,0,0,0-4.646,2.816C4.4,13.665,5.869,18.757,7.8,21.544c.943,1.364,2.068,2.9,3.545,2.842,1.422-.057,1.96-.92,3.679-.92s2.2.92,3.708.892c1.53-.028,2.5-1.391,3.437-2.759A12.38,12.38,0,0,0,23.723,18.4a4.96,4.96,0,0,1-3.014-4.543ZM17.882,5.515A4.95,4.95,0,0,0,19.05,1.928a5.035,5.035,0,0,0-3.308,1.7A4.708,4.708,0,0,0,14.55,7.1,4.165,4.165,0,0,0,17.882,5.515Z" transform="translate(-5.436 -1.928)" fill="#fff"/>
</svg>
